<?xml version="1.0" encoding="utf-8"?>
<!-- Generator: Adobe Illustrator 19.0.0, SVG Export Plug-In . SVG Version: 6.00 Build 0)  -->
<svg version="1.1"
	 id="svg2" xmlns:cc="http://creativecommons.org/ns#" xmlns:dc="http://purl.org/dc/elements/1.1/" xmlns:rdf="http://www.w3.org/1999/02/22-rdf-syntax-ns#" xmlns:inkscape="http://www.inkscape.org/namespaces/inkscape" xmlns:sodipodi="http://sodipodi.sourceforge.net/DTD/sodipodi-0.dtd" xmlns:svg="http://www.w3.org/2000/svg" inkscape:version="0.48.5 r10040" sodipodi:docname="Rust Logo.svg"
	 xmlns="http://www.w3.org/2000/svg" xmlns:xlink="http://www.w3.org/1999/xlink" x="0px" y="0px" viewBox="49 337.7 694 166.2"
	 style="enable-background:new 49 337.7 694 166.2;" xml:space="preserve">
<style type="text/css">
	.st0{fill:#C5412B;}
	.st1{fill:#999999;}
</style>
<sodipodi:namedview  id="base" borderopacity="1.0" bordercolor="#666666" inkscape:zoom="1.17" inkscape:cx="372.11275" inkscape:cy="23.478679" showguides="false" fit-margin-left="0" pagecolor="#ffffff" fit-margin-top="0" showgrid="false" inkscape:pageshadow="2" inkscape:guide-bbox="true" inkscape:window-height="801" inkscape:window-width="1536" inkscape:pageopacity="0.0" inkscape:document-units="px" fit-margin-right="0" fit-margin-bottom="0" inkscape:current-layer="layer1" inkscape:window-x="-8" inkscape:window-y="-8" inkscape:window-maximized="1">
	<sodipodi:guide  position="206.01504,166.16541" orientation="0,1" id="guide2996"></sodipodi:guide>
	<sodipodi:guide  position="96.99248,-2.6171875e-006" orientation="0,1" id="guide2998"></sodipodi:guide>
	<sodipodi:guide  position="7.1054274e-015,188.7218" orientation="1,0" id="guide3000"></sodipodi:guide>
	<sodipodi:guide  position="162.40601,216.54135" orientation="1,0" id="guide3002"></sodipodi:guide>
	<sodipodi:guide  position="178.94737,234.58647" orientation="1,0" id="guide3004"></sodipodi:guide>
	<sodipodi:guide  position="296.2406,248.87218" orientation="1,0" id="guide3006"></sodipodi:guide>
	<sodipodi:guide  position="314.28571,265.41353" orientation="1,0" id="guide3008"></sodipodi:guide>
	<sodipodi:guide  position="215.03759,253.38346" orientation="1,0" id="guide3010"></sodipodi:guide>
	<sodipodi:guide  position="263.15789,263.15789" orientation="1,0" id="guide3012"></sodipodi:guide>
	<sodipodi:guide  position="230.82707,278.94737" orientation="1,0" id="guide3014"></sodipodi:guide>
	<sodipodi:guide  position="348.87218,294.73684" orientation="1,0" id="guide3016"></sodipodi:guide>
	<sodipodi:guide  position="396.2406,290.22556" orientation="1,0" id="guide3018"></sodipodi:guide>
	<sodipodi:guide  position="429.32331,287.96992" orientation="1,0" id="guide3020"></sodipodi:guide>
	<sodipodi:guide  position="447.36842,273.68421" orientation="1,0" id="guide3022"></sodipodi:guide>
	<sodipodi:guide  position="481.20301,280.45113" orientation="1,0" id="guide3024"></sodipodi:guide>
	<sodipodi:guide  position="527.81955,291.72932" orientation="1,0" id="guide3026"></sodipodi:guide>
	<sodipodi:guide  position="561.65414,294.73684" orientation="1,0" id="guide3028"></sodipodi:guide>
	<sodipodi:guide  position="578.94737,303.7594" orientation="1,0" id="guide3030"></sodipodi:guide>
	<sodipodi:guide  position="693.98496,276.69173" orientation="1,0" id="guide3032"></sodipodi:guide>
	<sodipodi:guide  position="653.38346,288.7218" orientation="1,0" id="guide3034"></sodipodi:guide>
	<sodipodi:guide  position="621.05263,318.79699" orientation="1,0" id="guide3036"></sodipodi:guide>
	<sodipodi:guide  position="372.18045,131.57895" orientation="0,1" id="guide3038"></sodipodi:guide>
	<sodipodi:guide  position="348.87218,35.338347" orientation="0,1" id="guide3040"></sodipodi:guide>
	<sodipodi:guide  position="283.6104,48.372077" orientation="0,1" id="guide3042"></sodipodi:guide>
	<sodipodi:guide  position="373.51866,104.79409" orientation="0,1" id="guide3044"></sodipodi:guide>
	<sodipodi:guide  position="365.26178,82.775747" orientation="0,1" id="guide3046"></sodipodi:guide>
	<sodipodi:guide  position="373.97737,69.472987" orientation="0,1" id="guide3048"></sodipodi:guide>
</sodipodi:namedview>
<g id="layer1" transform="translate(-25.56391,-410.25692)" inkscape:label="Layer 1" inkscape:groupmode="layer">
	<g id="g3848">
		<g>
			<g>
				<path id="path3818" inkscape:connector-curvature="0" class="st0" d="M74.6,747.9H237v166.2H74.6V747.9z"/>
			</g>
		</g>
		<path class="st1" d="M253.5,747.9v166.2h36.1v-48.4h15.8v48.4h65.4v-35.3h-33.1v-13h33.1V747.9H253.5z M337.7,831.4h-48.1v-48.9
			h48.1V831.4z"/>
		<path id="path3842" inkscape:connector-curvature="0" class="st1" d="M388.8,747.9v166.2h115V747.9h-33.1v130.8h-47.4V747.9H388.8
			z"/>
		<path id="path3844" inkscape:connector-curvature="0" class="st1" d="M636.2,747.9H521.9v96.7h80.5v34.1h-80.5V914h114.3V809.3
			h-80.5v-26.8h80.5V747.9z"/>
		<path id="path3846" inkscape:connector-curvature="0" class="st1" d="M653.5,747.9h115v34.6h-40.6v131.6h-32.3V782.5h-42.1
			L653.5,747.9L653.5,747.9z"/>
	</g>
</g>
<g>
	<g>
		<g>
			<path d="M177.2,374.8h12.5V471h-12.5V374.8z M167,396.2V471h-12.5v-74.8H167z M145.1,418.4V471h-12.5v-52.6H145.1z M122.4,441.5
				V471h-12.5v-29.5H122.4z M98.5,453.1V471H85.9v-17.9H98.5z M193.6,489.1h-127v-9.3h127L193.6,489.1L193.6,489.1z"/>
		</g>
	</g>
</g>
<g>
	<path d="M147.1,370.6l-1.9,0.6c-2.4,0.8-5.2-0.3-6.2-2.4c-0.5-1-0.5-2.1-0.1-3.1c0.5-1.2,1.5-2.1,2.9-2.5l21.5-6.9l2.6,19.9
		c0.1,1-0.1,2-0.8,2.9c-0.8,1.1-2.1,1.7-3.5,1.9c-0.2,0-0.4,0-0.5,0c-2.4,0-4.5-1.6-4.8-3.7l-0.3-3c-24.9,35.7-82.1,73.9-84.6,75.6
		c-0.8,0.6-1.9,0.9-2.9,0.9c-1.4,0-2.8-0.6-3.7-1.5c-0.8-0.9-1.2-2-1.1-3.2c0.1-1.2,0.8-2.3,1.9-3
		C66.1,442.5,122.8,404.5,147.1,370.6z"/>
</g>
</svg>
